<svg xmlns="http://www.w3.org/2000/svg" viewBox="0 0 48 48" width="48" height="48">
  <circle cx="24" cy="24" r="22" fill="#000000"/>
  <path d="M24 10c-7.7 0-14 6.3-14 14s6.3 14 14 14 14-6.3 14-14-6.3-14-14-14zm0 25c-6.1 0-11-4.9-11-11s4.9-11 11-11 11 4.9 11 11-4.9 11-11 11zm2.5-16c0 1.4-1.1 2.5-2.5 2.5s-2.5-1.1-2.5-2.5 1.1-2.5 2.5-2.5 2.5 1.1 2.5 2.5zm6 8c-.8-2.3-2.9-4.1-5.5-4.5.9-.8 1.5-2 1.5-3.5 0-2.5-2-4.5-4.5-4.5s-4.5 2-4.5 4.5c0 1.5.6 2.7 1.5 3.5-2.6.4-4.7 2.2-5.5 4.5" fill="white"/>
</svg>